<svg width="432" height="572" viewBox="0 0 432 572" fill="none" xmlns="http://www.w3.org/2000/svg">
<path d="M316.228 220.969H33.0814C24.3314 220.959 15.9428 217.479 9.75577 211.292C3.56874 205.104 0.0885946 196.716 0.0788574 187.966V33.7505C0.0886775 25.0008 3.5689 16.6123 9.75598 10.4254C15.9431 4.23857 24.3317 0.758618 33.0814 0.749084H316.228C324.978 0.758618 333.367 4.23857 339.554 10.4254C345.741 16.6123 349.221 25.0008 349.231 33.7505V187.966C349.221 196.716 345.741 205.104 339.554 211.292C333.367 217.479 324.978 220.959 316.228 220.969Z" fill="#121214"/>
<path d="M174.655 164.501C204.28 164.501 228.297 140.485 228.297 110.859C228.297 81.2337 204.28 57.2175 174.655 57.2175C145.029 57.2175 121.013 81.2337 121.013 110.859C121.013 140.485 145.029 164.501 174.655 164.501Z" fill="#00875F"/>
<path d="M164.338 135.954C163.578 135.952 162.832 135.758 162.167 135.389C161.457 135.006 160.864 134.436 160.453 133.741C160.042 133.046 159.828 132.252 159.834 131.445V94.2713C159.834 93.4653 160.051 92.674 160.461 91.9803C160.871 91.2865 161.461 90.7157 162.167 90.3276C162.873 89.9394 163.671 89.7481 164.477 89.7737C165.282 89.7993 166.066 90.0408 166.747 90.473L202.01 109.06C202.649 109.466 203.176 110.027 203.541 110.691C203.906 111.355 204.097 112.101 204.097 112.858C204.097 113.616 203.906 114.361 203.541 115.025C203.176 115.689 202.649 116.25 202.01 116.657L166.747 135.243C166.028 135.705 165.192 135.952 164.338 135.954Z" fill="#015C41"/>
<path d="M345.764 312.704C344.729 311.999 343.862 311.075 343.223 309.998C342.584 308.921 342.189 307.717 342.065 306.471C341.942 305.225 342.093 303.966 342.509 302.785C342.924 301.604 343.594 300.528 344.47 299.633L330.906 272.38L346.609 274.292L357.082 299.879C358.487 301.451 359.268 303.483 359.274 305.592C359.281 307.7 358.515 309.738 357.12 311.319C355.724 312.9 353.798 313.914 351.705 314.169C349.612 314.425 347.498 313.903 345.764 312.704Z" fill="#FFB8B8"/>
<path d="M290.777 218.935L301.066 217.514C301.066 217.514 302.06 233.027 306.982 235.378C311.904 237.73 310.244 238.116 310.825 240.605C311.384 242.357 312.306 243.972 313.53 245.344C314.754 246.716 316.253 247.816 317.931 248.57C321.829 250.285 339.564 293.409 339.564 293.409L354.497 289.927C353.115 286.183 352.205 282.281 351.788 278.312C351.264 272.312 344.463 258.152 342.223 256.051C339.984 253.949 340.869 250.243 339.708 245.266C338.547 240.288 339.353 244.903 337.419 236.607C335.484 228.311 313.734 178.592 312.822 170.932C311.911 163.272 301.237 158.764 301.237 158.764L292.941 160.698L290.777 218.935Z" fill="#121214"/>
<path d="M250.419 244.607L233.78 322.717L324.603 315.871L297.419 239.607L250.419 244.607Z" fill="#FFB8B8"/>
<path d="M359.005 571.95H357.425C356.925 571.14 356.385 570.35 355.845 569.57C354.985 568.36 354.098 567.177 353.185 566.02C352.395 565.02 351.605 564.03 350.815 563.04C349.995 562.01 349.185 560.98 348.395 559.92L349.325 558.9C349.475 559.1 349.625 559.3 349.785 559.5C352.345 562.87 355.115 566.11 357.485 569.57C358.015 570.35 358.525 571.14 359.005 571.95Z" fill="white"/>
<path d="M355.393 519.778C348.184 514.842 343.1 507.371 341.155 498.853C340.963 498.009 339.663 498.352 339.855 499.195C341.896 508.054 347.202 515.819 354.715 520.938C355.432 521.426 356.106 520.262 355.393 519.778Z" fill="white"/>
<path d="M263.077 551.388H252.875L248.022 512.036L263.079 512.037L263.077 551.388Z" fill="#FFB8B8"/>
<path d="M268.566 570.76H261.326L260.034 563.925L256.725 570.76H237.524C236.604 570.76 235.708 570.466 234.966 569.92C234.225 569.375 233.677 568.607 233.403 567.728C233.13 566.849 233.144 565.906 233.444 565.036C233.744 564.166 234.314 563.415 235.072 562.892L250.405 552.302V545.393L266.532 546.355L268.566 570.76Z" fill="#00875F"/>
<path d="M359.502 546.313L349.532 548.475L336.446 511.047L351.161 507.855L359.502 546.313Z" fill="#FFB8B8"/>
<path d="M368.973 564.08L361.898 565.615L359.186 559.21L357.401 566.591L338.637 570.661C337.737 570.856 336.799 570.759 335.959 570.383C335.119 570.007 334.421 569.373 333.967 568.572C333.513 567.771 333.327 566.847 333.436 565.933C333.545 565.019 333.943 564.164 334.572 563.492L347.311 549.893L345.847 543.14L361.812 540.662L368.973 564.08Z" fill="#00875F"/>
<path d="M431.355 570.76C431.355 570.916 431.325 571.071 431.265 571.216C431.206 571.36 431.118 571.492 431.007 571.602C430.897 571.713 430.765 571.801 430.621 571.86C430.476 571.92 430.321 571.95 430.165 571.95H149.875C149.559 571.95 149.256 571.824 149.033 571.601C148.81 571.378 148.685 571.075 148.685 570.76C148.685 570.444 148.81 570.142 149.033 569.918C149.256 569.695 149.559 569.57 149.875 569.57H430.165C430.321 569.569 430.476 569.6 430.621 569.659C430.765 569.719 430.897 569.807 431.007 569.917C431.118 570.028 431.206 570.159 431.265 570.304C431.325 570.448 431.355 570.603 431.355 570.76Z" fill="#121214"/>
<path d="M231.462 375.607C238.622 414.957 236.412 389.947 236.412 389.947C236.412 389.947 231.042 396.207 234.622 399.787C238.202 403.367 234.622 410.517 234.622 410.517L247.419 514.607L249.419 523.607H263.419L264.419 511.607L270.812 453.417C270.812 453.417 274.392 446.257 272.602 444.467C270.812 442.677 274.392 431.947 274.392 431.947L278.862 346.987L295.592 398.997C295.592 398.997 292.902 402.577 295.592 405.257C298.272 407.937 314.632 462.357 314.632 462.357L334.419 509.607L335.419 510.607L340.419 523.607L353.419 517.607L345.702 450.987L345.382 449.557L345.042 448.047C345.042 448.047 346.832 443.577 344.152 440.887C343.368 440.067 342.795 439.069 342.483 437.978C342.171 436.887 342.13 435.737 342.362 434.627C342.449 434.533 342.53 434.433 342.602 434.327C342.918 433.892 343.137 433.394 343.242 432.867C343.482 431.747 343.272 430.177 341.462 428.367C340.952 427.825 340.524 427.212 340.192 426.547C337.472 421.397 336.102 410.487 336.102 410.487C336.102 410.487 333.682 324.077 325.762 310.877C325.342 310.187 306.859 262.877 306.419 262.607C297.479 257.247 245.419 264.607 245.419 264.607C245.419 264.607 229.562 310.047 229.372 311.227C228.342 317.857 225.392 342.227 231.462 375.607Z" fill="#121214"/>
<path d="M190.725 121.275C190.046 122.327 189.605 123.515 189.434 124.756C189.264 125.997 189.367 127.26 189.737 128.456C190.107 129.652 190.735 130.753 191.577 131.68C192.419 132.608 193.453 133.339 194.608 133.824L192.69 164.205L206.419 156.345L206.135 128.7C206.82 126.706 206.75 124.53 205.938 122.584C205.125 120.638 203.628 119.058 201.728 118.143C199.829 117.228 197.659 117.041 195.632 117.618C193.604 118.196 191.858 119.497 190.725 121.275Z" fill="#FFB8B8"/>
<path d="M243.76 170.609C243.76 170.609 251.118 159.645 265.6 145.164C273.267 142.608 286.551 144.098 291.156 145.164C312.453 173.275 313.793 171.407 319.337 187.114C320.775 191.187 321.493 195.101 320.855 198.295C318.299 211.073 300.396 242.636 301.247 246.043C302.099 249.451 308.062 253.71 302.099 253.71C296.136 253.71 246.715 248.163 248.419 245.607C250.122 243.052 243.76 170.609 243.76 170.609Z" fill="#121214"/>
<path d="M269.776 134.26C283.399 134.26 294.443 123.216 294.443 109.593C294.443 95.9696 283.399 84.9257 269.776 84.9257C256.152 84.9257 245.108 95.9696 245.108 109.593C245.108 123.216 256.152 134.26 269.776 134.26Z" fill="#FFB8B8"/>
<path d="M274.055 162.253C274.055 162.253 253.612 144.111 227.778 180.859L208.028 190.359L207.419 167.607L210.908 163.053L209.419 138.607L190.149 141.844L188.72 157.72L185.419 164.607L187.574 170.449L185.303 195.677L186.419 204.607C186.419 204.607 187.772 216.014 195.749 220.763C197.873 222.035 200.183 222.966 202.596 223.521C207.323 224.602 213.033 224.353 219.808 221.647C233.888 216.127 247.625 209.769 260.945 202.607L274.055 162.253Z" fill="#121214"/>
<path d="M324.999 162.467C330.219 160.617 335.439 158.764 340.659 156.907C339.759 155.398 338.613 154.049 337.269 152.917C332.299 148.767 325.439 148.017 319.129 146.617C312.809 145.217 305.949 142.347 303.639 136.307C301.239 130.027 304.719 123.247 306.739 116.847C309.569 107.917 309.509 97.9473 305.719 89.3873C301.929 80.8273 294.229 73.8873 285.089 71.8473C275.949 69.8173 265.619 73.1273 259.999 80.6073C256.378 79.5211 252.484 79.7982 249.054 81.3863C245.623 82.9744 242.893 85.7637 241.379 89.2273C240.069 92.5073 240.029 96.4573 241.979 99.4073C243.929 102.357 248.099 103.867 251.239 102.227L249.419 97.6073C255.049 99.5173 258.709 109.697 257.949 115.597C257.199 121.487 253.759 126.647 250.269 131.457C246.779 136.267 243.059 141.127 241.559 146.877C239.399 155.147 242.319 164.187 247.719 170.817C253.119 177.447 260.729 181.947 268.609 185.257C274.507 187.737 280.637 189.626 286.909 190.897C285.789 188.717 284.679 186.537 283.559 184.357L296.849 192.397C299.419 192.647 302.009 192.797 304.599 192.847C312.139 192.977 319.828 192.187 326.729 189.177C333.639 186.157 339.709 180.687 342.209 173.577C343.01 171.278 343.389 168.852 343.328 166.417C337.219 165.097 331.109 163.781 324.999 162.467Z" fill="#2F2E41"/>
</svg>
